<?xml version="1.0" encoding="utf-8"?>
<!-- Generator: Adobe Illustrator 17.0.0, SVG Export Plug-In . SVG Version: 6.00 Build 0)  -->
<!DOCTYPE svg PUBLIC "-//W3C//DTD SVG 1.1//EN" "http://www.w3.org/Graphics/SVG/1.1/DTD/svg11.dtd">
<svg version="1.1" id="Layer_1" xmlns="http://www.w3.org/2000/svg" xmlns:xlink="http://www.w3.org/1999/xlink" x="0px" y="0px"
	 width="792px" height="612px" viewBox="0 0 792 612" enable-background="new 0 0 792 612" xml:space="preserve">
<g>
	<g>
		<path fill="#FAC284" d="M198.25,168.085l3.406-10.637l1.989-8.638c0.049-0.621,0.372-1.184,0.883-1.541
			c1.092-0.764,3.007-1.045,7.719-3.485c5.278-2.733,6.626-4.581,6.626-4.581s2.642,0.842,1.799,3.484
			c-0.842,2.642-7.866,7.743-7.866,7.743l5.259,15.12l-5.568,5.332l-4.549,9.125l-10.136-8.257L198.25,168.085z"/>
	</g>
	<g>
		<path fill="#43BDD7" d="M78.127,241.757c0,0,14.467,6.603,23.992,3.913v-3.913c0,0,10.748-2.691,21.268,0
			c0,0,44.77-21.455,51.131-34.336l24.22-42.483c0,0,7.339,12.966,10.764,13.455c0,0-9.581,40.03-24.994,55.932
			c-14.829,15.3-50.602,39.724-50.602,39.724l-5.138,53.333c0,0,2.202,37.92,2.691,37.431c0.404-0.404-42.473,1.364-57.365,1.989
			c-3.34,0.14-6.682-0.12-9.961-0.776l-8.54-1.708c-1.505-0.301-2.746-1.36-3.282-2.798l-6.968-18.726
			c0,0-29.357,8.563-33.272-0.979c-3.914-9.541,16.391-73.394,30.091-86.36C42.164,255.457,63.449,244.203,78.127,241.757z"/>
	</g>
	<g>
		<path fill="#16A2B8" d="M77.841,241.929c0,0,14.467,6.603,23.992,3.913v-3.913c0,0,10.748-2.691,21.268,0
			c0,0,44.77-21.455,51.131-34.336l24.22-42.483c0,0,7.339,12.966,10.764,13.455c0,0-9.581,40.03-24.994,55.932
			c-14.829,15.3-50.602,39.724-50.602,39.724l-5.138,53.333c0,0,2.202,37.92,2.691,37.431c0.404-0.404-42.473,1.364-57.365,1.989
			c-3.34,0.14-6.682-0.12-9.961-0.776l-8.54-1.708c-1.505-0.301-2.746-1.36-3.282-2.798l-6.968-18.726
			c0,0-29.357,8.563-33.272-0.979c-3.914-9.541,16.391-73.394,30.091-86.36C41.878,255.629,63.162,244.375,77.841,241.929z"/>
	</g>
	<g>
		<path fill="#082A3C" d="M635.952,147.813c3.085,0,5.784,1.184,7.601,3.335c1.857,2.198,2.586,5.146,2.052,8.302L605.35,397.295
			c-1.111,6.568-7.355,11.911-13.917,11.911H184.542c-3.085,0-5.784-1.184-7.601-3.335c-1.857-2.198-2.586-5.146-2.052-8.302
			l40.255-237.845c1.112-6.568,7.355-11.911,13.917-11.911H635.952 M635.952,146.991H229.061c-6.957,0-13.55,5.639-14.728,12.596
			l-40.255,237.845c-1.177,6.956,3.508,12.596,10.464,12.596h406.891c6.956,0,13.55-5.639,14.728-12.596l40.255-237.845
			C647.593,152.63,642.908,146.991,635.952,146.991L635.952,146.991z"/>
	</g>
	<g>
		<path fill="#C5D9F2" d="M582.598,410.028H175.707c-6.957,0-11.641-5.639-10.464-12.596l40.255-237.845
			c1.177-6.957,7.771-12.596,14.728-12.596h406.891c6.957,0,11.641,5.639,10.464,12.596l-40.255,237.845
			C596.149,404.388,589.555,410.028,582.598,410.028z"/>
	</g>
	<g opacity="0.6">
		<g>
			<defs>
				<polygon id="SVGID_1_" points="603.93,285.026 195.829,285.026 217.305,158.133 625.406,158.133 				"/>
			</defs>
			<clipPath id="SVGID_2_">
				<use xlink:href="#SVGID_1_"  overflow="visible"/>
			</clipPath>
			<polygon clip-path="url(#SVGID_2_)" fill="#FFFFFF" points="195.829,280.167 195.857,279.997 605.604,279.997 604.753,285.026 
				195.829,285.026 			"/>
			<polygon clip-path="url(#SVGID_2_)" fill="#FFFFFF" points="195.857,279.997 207.111,213.506 616.857,213.506 605.604,279.997 
							"/>
			<polygon clip-path="url(#SVGID_2_)" fill="#FFFFFF" points="207.111,213.506 216.483,158.133 625.406,158.133 625.406,162.992 
				616.857,213.506 			"/>
		</g>
	</g>
	<g>
		<g>
			<rect x="513.001" y="204.333" fill="#082A3C" width="0.822" height="11.96"/>
		</g>
		<g>
			
				<rect x="491.963" y="227.699" transform="matrix(0.1045 0.9945 -0.9945 0.1045 673.2778 -280.4625)" fill="#082A3C" width="0.822" height="11.855"/>
		</g>
		<g>
			
				<rect x="491.712" y="216.985" transform="matrix(0.7431 0.6691 -0.6691 0.7431 273.3388 -277.2821)" fill="#082A3C" width="12.261" height="0.822"/>
		</g>
	</g>
	<g>
		<g>
			<path fill="#082A3C" d="M269.679,218.416c-0.041-0.425-0.075-0.851-0.102-1.278l0.821-0.053c0.027,0.418,0.06,0.835,0.1,1.252
				L269.679,218.416z M269.492,214.649l0-0.136c0-0.781,0.023-1.573,0.068-2.356l0.821,0.047c-0.044,0.767-0.067,1.543-0.067,2.308
				l0,0.132L269.492,214.649z M270.597,209.773l-0.817-0.098c0.098-0.822,0.223-1.651,0.371-2.464l0.809,0.147
				C270.815,208.155,270.693,208.967,270.597,209.773z M271.472,204.97l-0.798-0.197c0.198-0.802,0.423-1.61,0.671-2.401
				l0.785,0.246C271.887,203.393,271.666,204.185,271.472,204.97z M272.93,200.312l-0.768-0.294c0.296-0.774,0.62-1.548,0.962-2.3
				l0.749,0.341C273.538,198.795,273.221,199.553,272.93,200.312z M274.952,195.868l-0.726-0.386
				c0.388-0.73,0.805-1.458,1.238-2.164l0.701,0.43C275.741,194.44,275.333,195.153,274.952,195.868z M277.506,191.706l-0.673-0.472
				c0.473-0.675,0.976-1.347,1.493-1.997l0.643,0.512C278.462,190.385,277.97,191.044,277.506,191.706z M280.548,187.883
				l-0.612-0.55c0.554-0.616,1.133-1.221,1.721-1.8l0.577,0.586C281.658,186.686,281.091,187.28,280.548,187.883z M284.026,184.46
				l-0.54-0.62c0.623-0.542,1.272-1.073,1.928-1.577l0.501,0.653C285.271,183.409,284.636,183.929,284.026,184.46z M335.646,183.954
				c-0.624-0.52-1.271-1.028-1.923-1.508l0.488-0.662c0.665,0.49,1.326,1.008,1.962,1.539L335.646,183.954z M287.896,181.49
				l-0.459-0.682c0.687-0.462,1.396-0.909,2.108-1.327l0.416,0.709C289.263,180.599,288.568,181.037,287.896,181.49z
				 M331.712,181.058c-0.682-0.441-1.385-0.865-2.091-1.262l0.403-0.717c0.721,0.405,1.439,0.838,2.135,1.288L331.712,181.058z
				 M292.102,179.019l-0.372-0.734c0.738-0.374,1.497-0.73,2.256-1.058l0.326,0.755
				C293.568,178.303,292.825,178.652,292.102,179.019z M327.456,178.664c-0.73-0.353-1.48-0.688-2.23-0.995l0.312-0.761
				c0.766,0.314,1.532,0.656,2.277,1.016L327.456,178.664z M296.581,177.084l-0.279-0.773c0.779-0.281,1.576-0.541,2.368-0.774
				l0.231,0.789C298.125,176.553,297.344,176.808,296.581,177.084z M322.938,176.814c-0.767-0.26-1.553-0.5-2.336-0.713l0.216-0.793
				c0.799,0.217,1.601,0.462,2.384,0.727L322.938,176.814z M301.264,175.711l-0.183-0.802c0.805-0.183,1.628-0.345,2.445-0.479
				l0.133,0.812C302.859,175.373,302.053,175.531,301.264,175.711z M318.228,175.534c-0.794-0.164-1.603-0.305-2.405-0.42
				l0.116-0.814c0.819,0.117,1.645,0.262,2.455,0.429L318.228,175.534z M306.08,174.919l-0.084-0.818
				c0.823-0.084,1.659-0.144,2.485-0.178l0.034,0.822C307.706,174.778,306.887,174.837,306.08,174.919z M313.395,174.842
				c-0.806-0.065-1.626-0.107-2.439-0.123l0.016-0.822c0.829,0.017,1.666,0.059,2.489,0.126L313.395,174.842z"/>
		</g>
		<g>
			<g>
				<polygon fill="#082A3C" points="266.553,215.914 267.111,215.309 270.09,218.06 272.616,214.887 273.26,215.401 
					270.182,219.264 				"/>
			</g>
		</g>
	</g>
	<g>
		<g>
			<rect x="182.689" y="397.463" fill="#082A3C" width="29.805" height="0.822"/>
		</g>
		<g>
			<rect x="181.98" y="401.652" fill="#082A3C" width="28.293" height="0.822"/>
		</g>
		<g>
			<rect x="181.278" y="405.804" fill="#082A3C" width="26.151" height="0.822"/>
		</g>
		<g>
			<rect x="180.575" y="409.956" fill="#082A3C" width="31.309" height="0.822"/>
		</g>
		<g>
			<rect x="179.866" y="414.145" fill="#082A3C" width="24.001" height="0.822"/>
		</g>
		<g>
			<rect x="179.163" y="418.297" fill="#082A3C" width="29.805" height="0.822"/>
		</g>
	</g>
	<g>
		<g>
			<polygon fill="#EC5F76" points="475.625,187.528 410.618,187.528 422.498,122.521 487.506,122.521 			"/>
		</g>
		<g>
			<polygon fill="#FFFFFF" points="476.11,136.773 472.13,131.903 449.071,151.399 433.138,131.903 427.378,136.773 
				443.311,156.269 420.252,175.765 424.232,180.635 447.291,161.139 463.224,180.635 468.984,175.765 453.051,156.269 			"/>
		</g>
	</g>
	<g>
		<g>
			
				<rect x="471.729" y="216.508" transform="matrix(0.4415 0.8972 -0.8972 0.4415 463.8244 -299.0447)" fill="#0A2B3D" width="0.822" height="13.135"/>
		</g>
		<g>
			
				<rect x="466.109" y="222.664" transform="matrix(0.4089 0.9126 -0.9126 0.4089 482.6548 -299.0049)" fill="#0A2B3D" width="12.06" height="0.822"/>
		</g>
	</g>
	<g>
		<path fill="#157A85" d="M64.346,272.626l4.645,87.295l-16.157,3.529l-7.489-20.655l-0.163-24.586
			c7.829-10.397,17.125-46.687,17.125-46.687L64.346,272.626z"/>
	</g>
	<g>
		<path fill="#FAC284" d="M106.995,182.553c0,0,1.468,17.859,6.361,26.422l-6.361,1.468c0,0,1.259,10.911,2.296,17.395
			c0.393,2.457-1.238,4.78-3.683,5.242l-4.485,0.848l1.223,14.434l-12.722,7.095l-11.498-13.7V225.61l-6.116-21.284l9.052-21.773
			l11.621-1.957L106.995,182.553z"/>
	</g>
	<g>
		<path fill="#D6364A" d="M53.173,359.921c0,0-8.574,23.328,3.799,49.645c3.246,6.904,5.385,14.273,6.133,21.865
			c0.957,9.703,2.134,22.617,2.544,31.241c0.734,15.413,56.024,35.474,56.024,35.474l8.314-133.39l-19.447-4.835H53.173z"/>
	</g>
	<g>
		<path fill="#FAC284" d="M231.302,147.423l2.741,1.382c1.257,0.634,1.911,1.749,1.589,2.718c-0.497,1.495-1.212,3.54-1.561,4.039
			c-0.566,0.808-3.581-1.315-2.552-4.42c0.414-1.25,0.697-2.824,0.697-2.824L231.302,147.423z"/>
	</g>
	<g>
		<path fill="#FAC284" d="M222.484,143.488l3.277-0.632c1.503-0.29,2.829,0.264,3.227,1.353c0.615,1.681,1.426,4.004,1.475,4.689
			c0.081,1.111-3.941,1.267-5.221-2.223c-0.515-1.405-1.365-3.009-1.365-3.009L222.484,143.488z"/>
	</g>
	<g>
		<path fill="#FAC284" d="M228.089,145.856l3.066-0.149c1.407-0.068,2.525,0.58,2.722,1.581c0.305,1.546,0.691,3.678,0.633,4.283
			c-0.094,0.982-3.763,0.622-4.399-2.588c-0.256-1.292-0.786-2.8-0.786-2.8L228.089,145.856z"/>
	</g>
	<g>
		<path fill="#FAC284" d="M216.879,143.685l3.359-1.612c1.541-0.74,3.247-0.433,4.155,0.749c1.402,1.826,3.297,4.36,3.646,5.157
			c0.566,1.293-3.823,2.538-6.738-1.252l-4.92,0.035L216.879,143.685z"/>
	</g>
	<g>
		<path fill="#082A3C" d="M83.346,201.635c0,0,2.487-13.333,11.906-13.578s18.104-5.505,18.104-5.505s-0.612-21.896-12.966-19.082
			l-5.138,2.446c0,0,0.612-7.095-5.994-3.914c-6.605,3.18-17.247,13.822-17.247,13.822s-1.59-5.994-7.462,0.245
			s-6.361,24.22,2.813,27.523c0,0-2.854,11.988,4.077,13.945c0,0,0.679,6.469,5.824,5.069l4.533-0.91c0,0-0.856-5.505,2.446-7.706
			c0,0-10.539-0.094-9.052-7.584c1.488-7.49,7.584-3.792,7.584-3.792L83.346,201.635z"/>
	</g>
	<g>
		<path fill="#082A3C" d="M97.245,493.174l-0.806-0.165c4.103-20.036,5.119-93.615,5.129-94.356l0.002-0.144l6.942-8.429
			l0.635,0.523l-6.758,8.207C102.337,402.51,101.277,473.49,97.245,493.174z"/>
	</g>
	<g>
		<path fill="#082A3C" d="M102.842,223.118c-1.854,0-3.477-1.227-3.559-1.29l0.501-0.653c0.021,0.016,2.108,1.588,3.982,0.978
			l0.255,0.782C103.626,223.064,103.229,223.118,102.842,223.118z"/>
	</g>
	<g>
		<path fill="#E09E5C" d="M101.124,233.928c0,0-10.779,1.512-15.966-13.543c0,0-0.077,15.055,15.966,17.08V233.928z"/>
	</g>
	<g>
		<g>
			<path fill="#FAC284" d="M72.122,315.134c0.035-0.007,0.07-0.014,0.105-0.02c0.534-0.104,1.697-0.257,2.681-0.592
				c0.156,0.046,0.431,0.082,0.543,0.121c0.318,0.109,0.634,0.224,0.95,0.339c0.66,0.239,1.576-0.31,2.241-0.085
				c0.391,0.133,0.981,0.742,1.385,0.86c-0.555,2.032-1.553,4.375-2.137,6.399c-0.292,1.012-0.596,2.02-0.903,3.028
				c-0.374,1.228-0.295,1.51-1.374,1.743c-1.62,0.35-3.623,0.027-5.325,0.291c-1.712,0.266-3.401,0.681-5.04,1.24
				c-1.763,0.601-3.594,1.381-5.421,1.019c-2.187-0.434-3.77-2.457-4.39-4.598c-0.532-1.839-0.436-3.989,0.793-5.457
				c1.228-1.467,3.255-1.929,5.131-2.305c3.448-0.691,7.206-0.937,10.541-1.94c1.002-0.302,2.399-0.175,3.23-0.913
				c0.711-0.631,0.663-1.812,0.991-2.682c0.727-1.926,2.151-3.773,1.947-5.934c-0.036-0.382-0.126-0.762-0.107-1.146
				c0.019-0.384,0.171-0.79,0.502-0.985c0.15-0.089,0.326-0.127,0.5-0.138c0.936-0.061,1.933,0.921,2.477,1.604
				c0.37,0.464,0.431,1.097,0.446,1.69c0.081,3.275-0.609,5.736-1.86,9.082"/>
		</g>
		<g>
			<g>
				
					<rect x="84.456" y="301.857" transform="matrix(-0.9601 -0.2797 0.2797 -0.9601 84.8124 622.1068)" fill="#43BDD7" width="4.686" height="6.289"/>
			</g>
			<g>
				<path fill="#082A3C" d="M72.313,274.783c-3.448,11.834,3.35,24.224,15.185,27.672c11.834,3.448,24.224-3.35,27.672-15.185
					c3.448-11.834-3.35-24.224-15.185-27.672S75.762,262.949,72.313,274.783z M77.167,276.198
					c2.667-9.154,12.25-14.412,21.404-11.745c9.154,2.667,14.412,12.25,11.745,21.404c-2.667,9.154-12.25,14.412-21.404,11.745
					C79.759,294.934,74.5,285.351,77.167,276.198z"/>
			</g>
			<g>
				<path fill="#082A3C" d="M72.803,340.547l6.63,1.932l10.085-34.613c0.279-0.956-0.271-1.958-1.227-2.236l-3.166-0.923
					c-0.956-0.279-1.958,0.271-2.236,1.227L72.803,340.547z"/>
			</g>
			<g>
				<path fill="#43BDD7" d="M93.75,301.091c-1.894,0-3.785-0.271-5.62-0.806c-10.619-3.094-16.741-14.25-13.647-24.869
					c2.479-8.51,10.395-14.453,19.249-14.453c1.894,0,3.785,0.271,5.62,0.806c5.144,1.499,9.396,4.911,11.974,9.608
					c2.578,4.697,3.171,10.117,1.673,15.261C110.52,295.148,102.605,301.091,93.75,301.091z M93.733,261.786
					c-8.491,0-16.082,5.699-18.459,13.86c-2.967,10.184,2.904,20.882,13.087,23.849c1.761,0.513,3.574,0.773,5.39,0.773
					c8.491,0,16.082-5.699,18.459-13.86c1.437-4.933,0.868-10.131-1.604-14.635c-2.472-4.505-6.55-7.777-11.483-9.214
					C97.362,262.046,95.549,261.786,93.733,261.786z"/>
			</g>
		</g>
		<g>
			<path fill="#FAC284" d="M81.45,310.869c0,0,2.76,4.803,6.67,1.794c0,0,3.387,0.063,1.827,2.029c0,0,1.62,1.313,0.169,2.469
				c0,0,1.601,2.291,0.06,2.914c0,0,2.982,2.974-0.202,3.932s-2.044,1.565-13.622,2.644S81.45,310.869,81.45,310.869z"/>
		</g>
	</g>
	<g>
		<path fill="#16A2B8" d="M45.345,342.795c0,0,19.767-5.795,26.666-11.263l1.59-1.296c-6.728-2.08-13.741-13.536-13.741-13.536
			s-19.898,1.305-29.357,7.666L45.345,342.795z"/>
	</g>
	<g>
		<path fill="#082A3C" d="M45.472,343.187l-0.255-0.782c0.197-0.064,19.776-6.487,26.538-11.847l1.019-0.83
			c-6.13-2.438-12.141-11.676-13.132-13.251c-2.305,0.177-20.214,1.731-28.91,7.578l-0.459-0.683
			c3.97-2.67,10.155-4.783,18.382-6.281c6.109-1.113,11.128-1.45,11.178-1.453l0.248-0.016l0.13,0.212
			c0.069,0.113,7.01,11.348,13.512,13.358l0.733,0.227l-2.185,1.781C65.388,336.654,46.282,342.922,45.472,343.187z"/>
	</g>
	<g>
		<g>
			<g>
				<g>
					<path fill="#082A3C" d="M335.514,211.769l-17.677,104.446l-0.162,0.96h0.973h12.837l-2.712,16.024h-13.115h-0.695l-0.116,0.685
						l-5.624,33.232h-17.626l5.578-32.957l0.162-0.96h-0.973h-62.959l-0.183-14.531l85.586-106.898H335.514 M253.588,317.174h1.694
						h44.071h0.695l0.116-0.685l12.065-71.286l0.538-3.18l-1.995,2.533l-56.136,71.286L253.588,317.174 M336.487,210.947h-18.075
						l-86.017,107.436l0.197,15.638h63.772l-5.74,33.917h19.294l5.74-33.917h13.81l2.99-17.669h-13.81L336.487,210.947
						L336.487,210.947z M311.419,245.066l-12.065,71.286h-44.071L311.419,245.066L311.419,245.066z"/>
				</g>
				<g>
					<path fill="#082A3C" d="M415.659,211.972c13.167,0,22.668,3.344,28.241,9.939c5.824,6.893,7.56,17.575,5.161,31.751
						l-11.996,70.879c-2.715,16.039-7.769,27.254-15.451,34.285c-3.886,3.557-8.44,6.115-13.924,7.821
						c-5.402,1.681-11.588,2.498-18.911,2.498c-7.465,0-13.507-0.771-18.471-2.357c-4.998-1.596-8.788-3.983-11.588-7.296
						c-2.967-3.512-4.772-8.009-5.517-13.749c-0.743-5.727-0.417-12.573,0.997-20.929l11.996-70.879
						c2.493-14.732,8.291-25.706,17.231-32.616C391.452,215.117,402.297,211.972,415.659,211.972 M391.77,353.121
						c7.922,0,13.621-1.894,17.935-5.961c4.729-4.457,7.897-11.766,9.688-22.345l11.996-70.879c1.8-10.634,1.04-17.478-2.39-21.538
						c-3.731-4.416-10.297-5.011-16.227-5.011c-15.099,0-25.201,4.395-28.904,26.275l-11.996,70.879
						c-1.986,11.733-1.255,18.878,2.371,23.169C377.405,351.452,382.811,353.121,391.77,353.121 M415.659,211.15
						c-25.59,0-44.946,11.17-50.274,42.65l-11.996,70.879c-5.465,32.292,4.926,45.29,35.39,45.29
						c29.042,0,43.631-12.998,49.097-45.29l11.996-70.879C455.2,222.32,440.031,211.15,415.659,211.15L415.659,211.15z
						 M391.77,352.299c-17.263,0-22.731-6.092-19.087-27.621l11.996-70.879c3.644-21.528,13.47-25.59,28.093-25.59
						c14.217,0,21.45,4.062,17.806,25.59l-11.996,70.879C414.938,346.207,405.987,352.299,391.77,352.299L391.77,352.299z"/>
				</g>
				<g>
					<path fill="#082A3C" d="M551.401,211.769l-17.677,104.446l-0.162,0.96h0.973h12.837l-2.712,16.024h-13.115h-0.695l-0.116,0.685
						l-5.624,33.232h-17.626l5.578-32.957l0.162-0.96h-0.973h-62.96l-0.183-14.531l85.586-106.898H551.401 M469.475,317.174h1.694
						h44.071h0.695l0.116-0.685l12.065-71.286l0.538-3.18l-1.995,2.533l-56.136,71.286L469.475,317.174 M552.375,210.947h-18.076
						l-86.017,107.436l0.197,15.638h63.772l-5.74,33.917h19.294l5.74-33.917h13.81l2.99-17.669h-13.81L552.375,210.947
						L552.375,210.947z M527.306,245.066l-12.065,71.286h-44.071L527.306,245.066L527.306,245.066z"/>
				</g>
			</g>
		</g>
		<g>
			<g>
				<path fill="#3561AB" d="M223.416,334.021l-0.197-15.638l86.017-107.436h18.076l-17.84,105.405h13.81l-2.99,17.669h-13.81
					l-5.74,33.917h-19.294l5.74-33.917H223.416z M302.243,245.066l-56.136,71.286h44.071L302.243,245.066z"/>
			</g>
			<g>
				<path fill="#3561AB" d="M344.213,324.678l11.996-70.879c5.328-31.479,24.684-42.65,50.274-42.65
					c24.371,0,39.541,11.17,34.213,42.65L428.7,324.678c-5.465,32.292-20.054,45.29-49.097,45.29
					C349.14,369.968,338.748,356.97,344.213,324.678z M409.406,324.678l11.996-70.879c3.644-21.528-3.589-25.59-17.806-25.59
					c-14.623,0-24.449,4.062-28.093,25.59l-11.996,70.879c-3.644,21.528,1.824,27.621,19.087,27.621
					C396.811,352.299,405.762,346.207,409.406,324.678z"/>
			</g>
			<g>
				<path fill="#3561AB" d="M439.303,334.021l-0.197-15.638l86.017-107.436h18.076l-17.84,105.405h13.81l-2.99,17.669h-13.81
					l-5.74,33.917h-19.294l5.74-33.917H439.303z M518.13,245.066l-56.136,71.286h44.071L518.13,245.066z"/>
			</g>
		</g>
		<g>
			<defs>
				<path id="SVGID_3_" d="M223.416,334.021l-0.197-15.638l86.017-107.436h18.076l-17.84,105.405h13.81l-2.99,17.669h-13.81
					l-5.74,33.917h-19.294l5.74-33.917H223.416z M302.243,245.066l-56.136,71.286h44.071L302.243,245.066z"/>
			</defs>
			<clipPath id="SVGID_4_">
				<use xlink:href="#SVGID_3_"  overflow="visible"/>
			</clipPath>
		</g>
		<g>
			<defs>
				<path id="SVGID_5_" d="M344.213,324.678l11.996-70.879c5.328-31.479,24.684-42.65,50.274-42.65
					c24.371,0,39.541,11.17,34.213,42.65L428.7,324.678c-5.465,32.292-20.054,45.29-49.097,45.29
					C349.14,369.968,338.748,356.97,344.213,324.678z M409.406,324.678l11.996-70.879c3.644-21.528-3.589-25.59-17.806-25.59
					c-14.623,0-24.449,4.062-28.093,25.59l-11.996,70.879c-3.644,21.528,1.824,27.621,19.087,27.621
					C396.811,352.299,405.762,346.207,409.406,324.678z"/>
			</defs>
			<clipPath id="SVGID_6_">
				<use xlink:href="#SVGID_5_"  overflow="visible"/>
			</clipPath>
		</g>
		<g>
			<defs>
				<path id="SVGID_7_" d="M439.303,334.021l-0.197-15.638l86.017-107.436h18.076l-17.84,105.405h13.81l-2.99,17.669h-13.81
					l-5.74,33.917h-19.294l5.74-33.917H439.303z M518.13,245.066l-56.136,71.286h44.071L518.13,245.066z"/>
			</defs>
			<clipPath id="SVGID_8_">
				<use xlink:href="#SVGID_7_"  overflow="visible"/>
			</clipPath>
		</g>
	</g>
	<g>
		<g>
			<path fill="#082A3C" d="M569.698,407.923c4.014-3.565,11.83-11.07,10.848-14.645l0,0c-1.586-1.244-3.861-1.064-5.232,0.414
				l-9.511,10.257c-0.919,0.991-0.994,2.5-0.176,3.577l0,0C566.609,408.82,568.483,409.002,569.698,407.923z"/>
		</g>
		<g>
			<g>
				<circle fill="#082A3C" cx="567.845" cy="383.324" r="10.177"/>
			</g>
			<g>
				<g>
					<path fill="#082A3C" d="M544.958,387.564c4.767-2.978,10.174-2.923,13.152,1.843c2.978,4.767,0.657,9.65-4.11,12.628
						l-29.384,21.066l-11.475-18.366L544.958,387.564z"/>
				</g>
				<g>
					<polygon fill="#082A3C" points="562.452,374.694 531.507,393.26 542.982,411.626 573.238,391.955 					"/>
				</g>
				<g>
					<g>
						<circle fill="#082A3C" cx="537.245" cy="402.443" r="10.828"/>
					</g>
					<g>
						<circle fill="#43BDD7" cx="537.245" cy="402.443" r="7.71"/>
					</g>
					<g>
						<polygon fill="#FFFFFF" points="532.6,400.83 536.658,407.325 533.234,404.949 						"/>
					</g>
				</g>
				<g>
					<g>
						<circle fill="#082A3C" cx="518.879" cy="413.918" r="10.828"/>
					</g>
					<g>
						<circle fill="#43BDD7" cx="518.879" cy="413.918" r="7.71"/>
					</g>
					<g>
						<polygon fill="#FFFFFF" points="514.234,412.305 518.292,418.8 514.868,416.424 						"/>
					</g>
				</g>
			</g>
		</g>
		<g>
			<path fill="#CD8B4F" d="M576.779,388.625c0.479-1.548,1.483-2.903,1.967-4.449c1.389-4.436-1.82-8.423-3.708-12.184
				c-0.274-0.546-1.581,1.45-1.644,1.595c-0.464,1.066,0.013,2.104,0.204,3.139c0.4,2.171,1.224,3.952-1.714,2.965
				c-1.821-0.612-3.492-3.011-5.151-4.063c-1.977-1.254-4.145-2.149-6.446-2.649c-0.52-0.113-1.054-0.21-1.585-0.15
				c-1.016,0.115-1.879,0.781-2.683,1.421c-2.332,1.857-4.664,3.714-6.996,5.572c-1.047,0.833-2.191,1.858-2.19,3.181
				c9.066,0.732,12.305,9.173,16.249,16.124c1.656,2.919,3.5,5.809,6.098,7.939c0.324,0.266,0.69,0.53,1.114,0.538
				c0.468,0.008,0.881-0.297,1.251-0.59c2.162-1.714,7.502-4.813,7.587-7.919C579.232,395.354,575.443,392.941,576.779,388.625z"/>
		</g>
		<g>
			<g>
				<polygon fill="#2A7E34" points="565.794,407.726 565.807,407.738 565.796,407.726 				"/>
			</g>
			<g>
				<path fill="#2A7E34" d="M580.69,393.36c0.186,1.071-0.206,2.039-0.723,2.971c-2.372,4.273-5.859,7.83-9.623,10.948
					c-0.643,0.533-1.324,1.069-2.135,1.271c-0.75,0.187-1.544-0.012-2.106-0.545c1.102,1.732,3.032,3.242,4.488,4.684
					c3.041,3.011,6.185,5.911,9.241,8.907c1.867,1.844,10.581,9.123,12.447,10.967l20.562-22.556
					c-3.747-1.663-14.342-8.76-18.089-10.423c-2.261-1.003-4.626-2.042-6.928-3.059C585.46,395.478,583.164,394.13,580.69,393.36z"
					/>
			</g>
		</g>
		<g>
			<path fill="#3DAA35" d="M557.087,476.325c1.139,3.321,7.496,3.773,11.065,2.899c1.845-0.451,3.483-1.5,5.014-2.624
				c6.324-4.645,11.368-10.783,16.341-16.852c1.887-2.303,3.783-4.618,5.262-7.201c0.015,2.03,0.774,3.846,1.915,5.524
				c1.242,1.826,2.661,3.125,4.414,4.457c4.609,3.501,11.205,5.083,14.962,9.586c1.057,1.267,1.835,2.77,3.047,3.889
				c3.269,3.016,8.308,2.282,12.359,2.032c5.339-0.33,10.643-0.806,16-0.824c8.237-0.028,16.505,0.706,24.692-0.194
				c7.964-0.876,15.67-3.277,23.324-5.648c2.99-0.926,6.061-1.86,9.186-1.675c3.125,0.185,6.365,1.727,7.692,4.562
				c1.219-0.629,1.006-2.412,0.612-3.726c-1.833-6.113-3.666-12.227-5.498-18.34c-2.12-7.073-4.276-14.228-8.06-20.568
				c-5.057-8.476-12.717-15.009-19.729-21.956c-10.646-10.548-21.06-22.965-35.681-26.252c-3.659-0.823-7.435-1.02-11.096-1.831
				c-4.563-1.01-8.116-4.723-12.506-5.41c-4.77-0.747-10.137,0.905-13.962,3.738c-2.07,1.533-3.806,3.444-5.399,5.479
				c-0.797,1.018-1.558,2.067-2.307,3.115c-6.651,9.308-12.78,18.989-18.349,28.982c-2.785,4.996-5.43,10.071-7.931,15.215
				c-0.673,1.384-1.641,3.203-3.885,6.43C568.572,439.129,551.77,460.819,557.087,476.325z"/>
		</g>
		<g>
			<path fill="#CD8B4F" d="M593.804,305.809c0,0-5.757,27.141,7.813,44h14.392l4.934,17.681l7.401-32.421L593.804,305.809z"/>
		</g>
		<g>
			<path fill="#2A7E34" d="M630.399,379.879c-0.559,5.3-1.119,10.637-0.7,15.95s1.882,10.661,5.012,14.921
				c2.582,3.513,6.145,6.106,9.469,8.89c8.125,6.802,15.186,15.085,24.327,20.364c8.482,4.899,18.516,6.929,28.18,5.7
				c3.929-0.5,8.098-1.718,10.51-4.933c1.876-2.5,2.372-5.821,2.283-8.972c-0.251-8.931-4.662-17.253-10.212-24.148
				c-5.55-6.895-12.273-12.69-18.277-19.174c-3.856-4.164-7.458-8.652-12.005-12.005c-4.547-3.353-10.322-5.491-15.779-4.185
				c-5.924,1.418-10.512,6.591-16.474,7.828c-1.599,0.332-3.309,0.386-4.714,1.234c-1.406,0.848-2.302,2.917-1.274,4.214"/>
		</g>
		<g>
			<path fill="#F7C137" d="M608.512,272.001c-0.877,0.043-1.736,0.158-2.57,0.387c-4.399,1.209-7.652,5.443-9.445,9.385
				c-2.702,5.94-5.083,12.212-5.138,18.737c-0.056,6.525,2.614,13.4,8.131,16.884c5.513,3.482,13.369,3.458,17.202,8.734
				c3.59,4.941,1.68,11.784-0.083,17.632c-1.713,5.68-3.164,11.535-2.993,17.465c0.171,5.931,2.132,12.01,6.396,16.135
				c3.841,3.714,9.153,5.516,14.414,6.446c3.971,0.702,8.433,1.188,11.025,4.277c1.342,1.599,1.952,3.665,2.64,5.636
				c2.419,6.933,6.192,13.391,11.045,18.901c4.667,5.299,10.267,9.677,15.832,14.023c2.954,2.306,5.952,4.639,9.404,6.098
				c4.192,1.771,8.826,2.158,13.374,2.334c16.041,0.621,32.171-1.129,47.706-5.174c9.939-2.588,21.071-7.648,23.245-17.685
				c2.075-9.582-5.251-18.622-13.038-24.579c-15.857-12.13-35.296-18.466-52.712-28.226c-5.059-2.835-10.009-6.009-13.996-10.221
				c-10.764-11.37-12.848-28.142-18.72-42.656c-4.082-10.089-9.947-19.957-18.469-26.916c-4.273-3.489-9.209-6.148-14.571-7.506
				c-2.505-0.634-5.328-1.173-7.873-1.418c-3.353-0.322-6.129,1.035-9.384,1.604C616.237,272.945,612.219,271.821,608.512,272.001z"
				/>
		</g>
		<g>
			<path fill="#2A7E34" d="M610.335,429.223c0,0,2.507,2.663,7.518-0.32c0,0,2.345,28.938,9.128,49.386c0,0-5.266,0.496-8.173-2.583
				c-0.749-0.793-1.962-2.511-2.746-3.594c-2.134-2.948-9.539-6.377-9.539-6.377s-11.33-4.742-11.753-13.188L610.335,429.223z"/>
		</g>
		<g>
			<path fill="#082A3C" d="M595.536,451.627l-0.688-0.451c4.883-7.45,9.98-14.917,15.151-22.191l0.243-0.342l0.337,0.249
				c0.114,0.083,2.864,2.03,7.09-0.076l0.367,0.736c-3.846,1.916-6.636,0.758-7.59,0.224
				C605.358,436.944,600.343,444.293,595.536,451.627z"/>
		</g>
	</g>
	<g>
		<circle fill="#082A3C" cx="98.506" cy="200.276" r="1.439"/>
	</g>
	<g>
		<circle fill="#082A3C" cx="598.709" cy="323.61" r="1.645"/>
	</g>
	<g>
		<path fill="#082A3C" d="M600.181,344.467c-1.172,0-2.122-1.597-2.229-1.785l0.713-0.409c0.27,0.469,1.012,1.413,1.559,1.369
			c0.341-0.032,0.683-0.493,0.964-1.299l0.777,0.27c-0.404,1.161-0.963,1.783-1.664,1.848
			C600.26,344.465,600.22,344.467,600.181,344.467z"/>
	</g>
</g>
</svg>
