<?xml version="1.0" encoding="utf-8"?>
<svg width="16px" height="16px" viewBox="0 0 16 16" version="1.1" xmlns:xlink="http://www.w3.org/1999/xlink" xmlns="http://www.w3.org/2000/svg">
  <desc>Created with Lunacy</desc>
  <g id="iconos/info">
    <path d="M0 8C0 12.4 3.6 16 8 16C12.4 16 16 12.4 16 8C16 3.6 12.4 0 8 0C3.6 0 0 3.6 0 8ZM9 5C9 5.6 8.6 6 8 6C7.4 6 7 5.6 7 5C7 4.4 7.4 4 8 4C8.6 4 9 4.4 9 5ZM6 12L6 11L7 11L7 8L6 8L6 7L9 7L9 11L10 11L10 12L6 12Z" id="informacion" fill="#0064FF" stroke="none" />
  </g>
</svg>