<?xml version="1.0" encoding="utf-8"?>
<svg width="168px" height="46px" viewBox="0 0 168 46" version="1.1" xmlns:xlink="http://www.w3.org/1999/xlink" xmlns="http://www.w3.org/2000/svg">
  <desc>Created with Lunacy</desc>
  <defs>
    <path d="M0 0L15.9123 0L15.9123 22.6295L0 22.6295L0 0Z" transform="translate(0 0.2310181)" id="path_1" />
    <path d="M0 42.6463L167.605 42.6463L167.605 0L0 0L0 42.6463Z" transform="translate(0 0.06798189)" id="path_2" />
    <clipPath id="mask_1">
      <use xlink:href="#path_1" />
    </clipPath>
    <clipPath id="mask_2">
      <use xlink:href="#path_2" />
    </clipPath>
  </defs>
  <g id="Ãtomo/Logo-ChC">
    <g id="Group-19" transform="translate(0 1.642857)">
      <path d="M0 8.21429L39.5294 8.21429L39.5294 0L0 0L0 8.21429Z" transform="translate(0 34.5)" id="Fill-1" fill="#0063AD" stroke="none" />
      <path d="M0 8.21429L56 8.21429L56 0L0 0L0 8.21429Z" transform="translate(39.52941 34.5)" id="Fill-2" fill="#E43439" stroke="none" />
      <g id="Group-18">
        <g id="Group-5">
          <path d="M0 0L15.9123 0L15.9123 22.6295L0 22.6295L0 0Z" transform="translate(0 0.2310181)" id="Clip-4" fill="none" stroke="none" />
          <g clip-path="url(#mask_1)">
            <path d="M8.9628 22.6295C2.988 22.6295 0 18.0711 0 11.2008C0 4.10238 3.4428 0 9.0276 0C11.691 0 14.1912 0.651543 15.7824 1.79039L14.808 3.80999C13.542 2.83238 11.3016 2.21392 9.1578 2.21392C4.677 2.21392 2.5986 5.79591 2.5986 11.1033C2.5986 16.7693 4.7742 20.415 9.093 20.415C11.496 20.415 13.5744 19.5036 15.1332 18.3322L15.9126 20.3506C14.0616 21.6525 11.7882 22.6295 8.9628 22.6295" transform="translate(-0.0002999999 0.2310181)" id="Fill-3" fill="#0063AD" stroke="none" />
          </g>
        </g>
        <path d="M0 22.4671L0 0L2.4678 0L2.4678 6.41436C2.4678 7.0653 2.3706 8.0748 2.2404 8.43336C3.117 7.48944 4.7088 6.18695 7.0464 6.18695C10.9434 6.18695 12.5352 8.36839 12.5352 12.4058L12.5352 22.4671L10.002 22.4671L10.002 12.8293C10.002 9.8658 8.8332 8.14098 6.3648 8.14098C4.7088 8.14098 3.4422 9.08431 2.4678 9.96386L2.4678 22.4671L0 22.4671Z" transform="translate(18.96564 0.06798189)" id="Fill-6" fill="#0063AD" stroke="none" />
        <path d="M0 42.6463L167.605 42.6463L167.605 0L0 0L0 42.6463Z" transform="translate(0 0.06798189)" id="Clip-9" fill="none" stroke="none" />
        <g clip-path="url(#mask_2)">
          <path d="M1.5258 2.60497L4.15679 2.60497L4.15679 0L1.5258 0L1.5258 2.60497ZM1.7532 22.2391L1.7532 8.27033L0 7.91297L0 6.28381L4.15679 6.28381L4.15679 22.2391L1.7532 22.2391Z" transform="translate(34.8462 0.295992)" id="Fill-8" fill="#0063AD" stroke="none" />
          <path d="M0 18.0712L0 0L2.4354 0L2.4354 18.9832C2.4354 20.35 3.0522 20.9041 4.806 20.9041L5.3256 20.9041L5.3256 22.5965C5.3256 22.5965 4.5462 22.7926 3.7662 22.7926C0.746401 22.7926 0 21.0672 0 18.0712" transform="translate(43.45194 0.06822254)" id="Fill-10" fill="#0063AD" stroke="none" />
          <path d="M6.7218 1.88845C3.702 1.88845 2.4678 4.559 2.4678 7.29331L10.7814 7.29331C10.7814 4.52651 9.8394 1.88845 6.7218 1.88845L6.7218 1.88845ZM2.4678 9.01993C2.4678 12.9593 4.4814 14.6853 7.5018 14.6853C9.5472 14.6853 11.3658 13.7408 12.4374 13.0898L13.0548 14.8477C11.7228 15.6623 9.6444 16.6062 7.2414 16.6062C2.8902 16.6062 0 13.7077 0 8.20535C0 3.15845 2.4678 0 6.8196 0C11.301 0 13.1844 3.61447 13.1844 7.61939L13.1844 9.01993L2.4678 9.01993Z" transform="translate(51.34284 6.254395)" id="Fill-11" fill="#0063AD" stroke="none" />
          <path d="M8.9628 22.6295C2.988 22.6295 0 18.0711 0 11.2008C0 4.10238 3.4428 0 9.0276 0C11.691 0 14.1912 0.651543 15.7824 1.79039L14.808 3.80999C13.542 2.83238 11.301 2.21392 9.1578 2.21392C4.677 2.21392 2.5986 5.79591 2.5986 11.1033C2.5986 16.7693 4.7742 20.415 9.093 20.415C11.496 20.415 13.5744 19.5036 15.1332 18.3322L15.9126 20.3507C14.0616 21.6525 11.7882 22.6295 8.9628 22.6295" transform="translate(67.84014 0.2310181)" id="Fill-12" fill="#0063AD" stroke="none" />
          <path d="M11.106 8.27033C11.106 4.10238 9.7098 1.85597 6.7872 1.85597C3.7992 1.85597 2.5002 4.20044 2.5002 8.27033C2.5002 12.1778 3.6372 14.7503 6.7872 14.7503C9.8718 14.7503 11.106 12.5363 11.106 8.27033M13.6392 8.27033C13.6392 13.6433 11.0412 16.6056 6.7872 16.6056C2.4684 16.6056 0 13.7077 0 8.27033C0 3.58138 2.208 0 6.7872 0C11.2032 0 13.6392 3.51701 13.6392 8.27033" transform="translate(85.11786 6.254635)" id="Fill-13" fill="#0063AD" stroke="none" />
          <path d="M12.3726 6.21944L12.3726 16.2808L9.8718 16.2808L9.8718 6.64237C9.8718 3.61447 8.9952 1.95403 6.3 1.95403C4.611 1.95403 3.4422 2.89735 2.4678 3.77691L2.4678 16.2808L0 16.2808L0 0.325471L1.6236 0.325471L2.1432 2.24641C3.0528 1.30248 4.6434 0 6.9822 0C9.3522 0 10.8786 0.846465 11.658 2.44193C12.567 1.43243 14.3208 0 16.6266 0C20.523 0 22.2444 2.18204 22.2444 6.21944L22.2444 16.2808L19.7436 16.2808L19.7436 6.64237C19.7436 3.61447 18.6078 1.95403 15.912 1.95403C14.418 1.95403 13.0872 2.83298 12.1122 3.77691C12.3078 4.49342 12.3726 5.3074 12.3726 6.21944" transform="translate(102.4922 6.254575)" id="Fill-14" fill="#0063AD" stroke="none" />
          <path d="M2.5002 13.0242C3.4746 14.0337 4.806 14.7497 6.267 14.7497C9.1578 14.7497 10.5216 12.8612 10.5216 8.27033C10.5216 4.06989 9.3198 1.92094 6.4296 1.92094C4.8708 1.92094 3.4422 2.79989 2.5002 3.77691L2.5002 13.0242ZM2.5002 17.3546L2.5002 22.4665L0 22.4665L0 0.325471L1.9158 0.325471L2.3058 2.21392C3.4098 0.976413 5.0982 0 6.9492 0C11.0088 0 13.0218 2.89735 13.0218 8.27033C13.0218 13.9032 10.2294 16.6056 6.4296 16.6056C4.5132 16.6056 3.2796 15.9222 2.1432 14.7828C2.1432 14.7828 2.5002 16.3451 2.5002 17.3546L2.5002 17.3546Z" transform="translate(128.6021 6.254876)" id="Fill-15" fill="#0063AD" stroke="none" />
          <path d="M8.0862 2.37696C7.6314 2.21392 6.9174 2.08458 6.0402 2.08458C4.5138 2.08458 3.2796 2.96353 2.4684 3.80939L2.4684 16.1827L0 16.1827L0 0.22801L1.656 0.22801L2.1108 2.24641C2.793 1.33497 4.1892 0 6.2352 0C7.404 0 8.1186 0.22801 8.2482 0.260497L8.0862 2.37696Z" transform="translate(145.392 6.352276)" id="Fill-16" fill="#0063AD" stroke="none" />
          <path d="M9.74159 8.8569L6.00719 8.8569C3.312 8.8569 2.4024 10.0288 2.4024 11.6249C2.4024 13.5458 3.4422 14.8152 5.74799 14.8152C7.30619 14.8152 8.80019 13.9038 9.74159 12.8293L9.74159 8.8569ZM10.4562 16.2808L10.0338 14.2299C9.09239 15.4343 7.37159 16.6062 5.12999 16.6062C1.8828 16.6062 0 14.4248 0 11.7224C0 8.95436 2.013 7.16397 5.61779 7.16397L9.74159 7.16397L9.74159 5.89397C9.74159 3.12596 8.54039 1.95403 6.13739 1.95403C4.1238 1.95403 2.5002 2.47502 1.3308 2.99602L0.681599 1.20442C1.9482 0.650942 3.8316 0 6.46199 0C10.2288 0 12.1452 1.95403 12.1452 5.76342L12.1452 16.2808L10.4562 16.2808Z" transform="translate(155.46 6.254454)" id="Fill-17" fill="#0063AD" stroke="none" />
        </g>
      </g>
    </g>
  </g>
</svg>