<?xml version="1.0" encoding="utf-8"?>
<!-- Generator: Adobe Illustrator 24.1.3, SVG Export Plug-In . SVG Version: 6.00 Build 0)  -->
<svg version="1.1" id="Layer_1" xmlns="http://www.w3.org/2000/svg" xmlns:xlink="http://www.w3.org/1999/xlink" x="0px" y="0px"
	 viewBox="0 0 452 110" style="enable-background:new 0 0 452 110;" xml:space="preserve">
<style type="text/css">
	.st0{fill:#0063AE;}
	.st1{fill:#E63338;}
	.st2{fill:#F5F5F5;}
</style>
<g>
	<rect x="111.3" y="93.41" class="st0" width="60.74" height="12.29"/>
	<rect x="172.04" y="93.41" class="st1" width="87.52" height="12.29"/>
</g>
<g>
	<g>
		<path class="st2" d="M143.63,74.69l-1.02-30.54h-0.15c-0.56,2.29-1.78,6.05-2.29,7.62l-7.31,22.91h-4.93l-6.91-22.97
			c-0.36-1.12-1.83-5.9-2.29-7.57h-0.15l-0.97,30.54h-3.71l1.32-34.3h6.76c0,0,7.57,24.9,8.74,30.38h0.1
			c1.32-5.44,9.25-30.38,9.25-30.38h6.45l1.32,34.3H143.63z"/>
		<path class="st2" d="M157.86,63.36c0,6.15,3.15,8.84,7.88,8.84c3.2,0,6.05-1.47,7.72-2.49l0.97,2.74
			c-2.09,1.27-5.34,2.74-9.1,2.74c-6.81,0-11.33-4.52-11.33-13.11c0-7.87,3.86-12.8,10.67-12.8c7.01,0,9.96,5.64,9.96,11.89v2.18
			L157.86,63.36L157.86,63.36z M164.51,52.24c-4.72,0-6.65,4.17-6.65,8.43h13.01C170.86,56.35,169.39,52.24,164.51,52.24z"/>
		<path class="st2" d="M193.17,53.15c-0.71-0.26-1.83-0.46-3.2-0.46c-2.39,0-4.32,1.37-5.59,2.69v19.31h-3.86V49.8h2.59l0.71,3.15
			c1.07-1.42,3.25-3.51,6.45-3.51c1.83,0,2.95,0.36,3.15,0.41L193.17,53.15z"/>
		<path class="st2" d="M214.87,73.02c-1.52,0.86-4.67,2.19-8.28,2.19c-6.3,0-10.87-3.71-10.87-12.96c0-8.43,4.62-12.96,10.87-12.96
			c2.84,0,5.9,0.61,8.13,1.98l-1.12,2.74c-1.93-1.12-4.27-1.63-6.81-1.63c-4.47,0-7.21,3.56-7.21,9.86c0,7.01,2.74,9.96,7.21,9.96
			c2.9,0,5.39-1.02,7.16-2.08L214.87,73.02z"/>
		<path class="st2" d="M235.34,74.69l-0.66-3.2c-1.47,1.88-4.17,3.71-7.68,3.71c-5.08,0-8.02-3.4-8.02-7.62
			c0-4.32,3.15-7.11,8.79-7.11h6.45v-1.98c0-4.32-1.88-6.15-5.64-6.15c-3.15,0-5.69,0.81-7.52,1.63l-1.02-2.79
			c1.98-0.86,4.93-1.88,9.04-1.88c5.89,0,8.89,3.05,8.89,8.99v16.41L235.34,74.69L235.34,74.69z M234.22,63.11h-5.84
			c-4.22,0-5.64,1.83-5.64,4.32c0,3,1.63,4.98,5.24,4.98c2.44,0,4.77-1.42,6.25-3.1L234.22,63.11L234.22,63.11z"/>
		<path class="st2" d="M261,71.69c-1.42,1.88-4.22,3.51-7.16,3.51c-5.89,0-10.01-4.37-10.01-13.01c0-7.57,3.76-12.91,10.41-12.91
			c3.1,0,5.23,1.02,6.65,2.14c-0.15-1.32-0.2-2.59-0.2-4.07v-7.72h3.86v35.06h-2.9L261,71.69z M260.69,54.01
			c-1.17-0.81-3.25-1.78-6.05-1.78c-4.67,0-6.91,3.66-6.91,9.96c0,6.15,1.98,10.11,6.65,10.11c2.24,0,4.27-0.97,6.3-3.15
			L260.69,54.01L260.69,54.01z"/>
		<path class="st2" d="M291.74,62.2c0,8.38-4.07,13.01-10.72,13.01c-6.76,0-10.62-4.52-10.62-13.01c0-7.32,3.46-12.91,10.62-12.91
			C287.93,49.29,291.74,54.78,291.74,62.2z M287.78,62.2c0-6.5-2.19-10.01-6.76-10.01c-4.67,0-6.71,3.66-6.71,10.01
			c0,6.09,1.78,10.11,6.71,10.11C285.85,72.3,287.78,68.85,287.78,62.2z"/>
		<path class="st2" d="M306.62,61.58h-5.13v13.11h-3.86V40.4h8.99c6.71,0,12.3,3.2,12.3,10.21
			C318.92,57.77,313.69,61.58,306.62,61.58z M306.37,43.7h-4.88v14.68h4.88c5.23,0,8.38-2.49,8.38-7.67
			C314.76,45.88,311.3,43.7,306.37,43.7z"/>
		<path class="st2" d="M339.6,74.69l-0.56-2.85c-1.22,1.37-3.96,3.35-7.72,3.35c-5.54,0-8.59-3.3-8.59-10.11V49.8h3.86v15.04
			c0,5.13,1.62,7.27,5.64,7.27c2.39,0,4.57-1.12,6.15-2.44V49.8h3.91v24.9H339.6z M327.05,45.94l-0.56-2.29l11.23-4.17l0.76,2.9
			L327.05,45.94z"/>
		<path class="st2" d="M352.15,52.64c1.68-1.83,4.57-3.35,7.42-3.35c6.35,0,9.65,4.52,9.65,12.91c0,8.79-4.37,13.01-10.36,13.01
			c-3.2,0-5.43-1.37-7.22-3.2l-0.81,2.69h-2.13V39.64h3.86v9.65L352.15,52.64z M352.56,69.46c1.57,1.62,3.81,2.84,6.05,2.84
			c4.37,0,6.71-2.95,6.71-10.11c0-6.55-1.93-9.96-6.45-9.96c-2.39,0-4.83,1.27-6.3,2.79L352.56,69.46L352.56,69.46z"/>
		<path class="st2" d="M375.32,67.83v-28.2h3.81v29.62c0,2.13,0.97,3,3.71,3h0.81v2.64c0,0-1.22,0.3-2.44,0.3
			C376.49,75.2,375.32,72.51,375.32,67.83z"/>
		<path class="st2" d="M390.46,74.69V52.9l-2.74-0.56V49.8h6.5v24.9H390.46z M390.11,39.99h4.12v4.06h-4.12V39.99z"/>
		<path class="st2" d="M419.37,73.02c-1.52,0.86-4.67,2.19-8.28,2.19c-6.3,0-10.87-3.71-10.87-12.96c0-8.43,4.63-12.96,10.87-12.96
			c2.84,0,5.89,0.61,8.13,1.98l-1.12,2.74c-1.93-1.12-4.27-1.63-6.81-1.63c-4.47,0-7.21,3.56-7.21,9.86c0,7.01,2.74,9.96,7.21,9.96
			c2.9,0,5.39-1.02,7.16-2.08L419.37,73.02z"/>
		<path class="st2" d="M444.93,62.2c0,8.38-4.06,13.01-10.72,13.01c-6.76,0-10.62-4.52-10.62-13.01c0-7.32,3.45-12.91,10.62-12.91
			C441.12,49.29,444.93,54.78,444.93,62.2z M440.97,62.2c0-6.5-2.19-10.01-6.76-10.01c-4.68,0-6.71,3.66-6.71,10.01
			c0,6.09,1.78,10.11,6.71,10.11C439.03,72.3,440.97,68.85,440.97,62.2z"/>
	</g>
</g>
<g>
	<g>
		<g>
			<path class="st2" d="M123.33,30.11c-5.48,0-8.22-4.17-8.22-10.46c0-6.49,3.16-10.25,8.28-10.25c2.44,0,4.74,0.6,6.2,1.64
				l-0.9,1.85c-1.16-0.89-3.22-1.46-5.18-1.46c-4.11,0-6.02,3.28-6.02,8.13c0,5.18,1.99,8.52,5.96,8.52c2.2,0,4.11-0.83,5.54-1.91
				l0.71,1.85C128.01,29.22,125.92,30.11,123.33,30.11z"/>
			<path class="st2" d="M123.33,30.2c-5.28,0-8.31-3.84-8.31-10.54c0-6.47,3.13-10.34,8.37-10.34c2.5,0,4.78,0.6,6.25,1.65
				l0.06,0.04l-0.97,2.01l-0.09-0.07c-1.14-0.88-3.15-1.44-5.13-1.44c-3.83,0-5.93,2.86-5.93,8.04c0,5.36,2.14,8.43,5.87,8.43
				c2.45,0,4.34-1.03,5.49-1.89l0.09-0.07l0.78,2.02l-0.06,0.04C127.74,29.51,125.64,30.2,123.33,30.2z M123.39,9.5
				c-5.13,0-8.19,3.8-8.19,10.16c0,6.59,2.96,10.37,8.13,10.37c2.25,0,4.3-0.66,6.26-2.03l-0.64-1.67c-1.18,0.86-3.06,1.86-5.5,1.86
				c-3.84,0-6.05-3.14-6.05-8.61c0-5.23,2.23-8.22,6.11-8.22c1.97,0,3.97,0.55,5.15,1.41l0.81-1.68
				C128.04,10.09,125.78,9.5,123.39,9.5z"/>
		</g>
		<g>
			<path class="st2" d="M132.51,29.82V9.26h2.26v5.87c0,0.6-0.09,1.52-0.21,1.85c0.8-0.86,2.26-2.05,4.41-2.05
				c3.57,0,5.04,2,5.04,5.69v9.2h-2.33V21c0-2.71-1.07-4.29-3.34-4.29c-1.52,0-2.68,0.86-3.58,1.67v11.44L132.51,29.82L132.51,29.82
				z"/>
			<path class="st2" d="M144.09,29.9h-2.5V21c0-2.75-1.12-4.2-3.25-4.2c-1.47,0-2.59,0.81-3.49,1.62V29.9h-2.44V9.17h2.44v5.96
				c0,0.47-0.05,1.12-0.13,1.55c1.23-1.21,2.69-1.84,4.25-1.84c3.5,0,5.12,1.84,5.12,5.78C144.09,20.61,144.09,29.9,144.09,29.9z
				 M141.77,29.73h2.14v-9.11c0-3.82-1.57-5.6-4.94-5.6c-1.61,0-3.11,0.7-4.34,2.03l-0.3,0.32l0.15-0.41
				c0.11-0.31,0.2-1.23,0.2-1.82V9.35h-2.09v20.38h2.09V18.34l0.03-0.03c0.88-0.79,2.08-1.69,3.63-1.69c2.24,0,3.43,1.51,3.43,4.38
				L141.77,29.73L141.77,29.73z"/>
		</g>
		<g>
			<path class="st2" d="M148.68,29.82V17.04l-1.61-0.33v-1.49h3.81v14.6L148.68,29.82L148.68,29.82z M148.47,9.47h2.41v2.38h-2.41
				V9.47z"/>
			<path class="st2" d="M150.97,29.9h-2.38v-12.8l-1.61-0.33v-1.65h3.99V29.9z M148.77,29.73h2.03V15.31h-3.64v1.33l1.61,0.33
				L148.77,29.73L148.77,29.73z M150.97,11.94h-2.59V9.38h2.59V11.94z M148.56,11.77h2.24V9.56h-2.24V11.77z"/>
		</g>
		<g>
			<path class="st2" d="M154.96,25.79V9.26h2.24v17.37c0,1.25,0.57,1.76,2.18,1.76h0.47v1.55c0,0-0.71,0.18-1.43,0.18
				C155.65,30.11,154.96,28.53,154.96,25.79z"/>
			<path class="st2" d="M158.42,30.2c-2.95,0-3.55-1.76-3.55-4.41V9.17h2.41v17.45c0,1.23,0.55,1.67,2.09,1.67h0.56V30l-0.07,0.02
				C159.84,30.03,159.14,30.2,158.42,30.2z M155.06,9.35v16.44c0,2.54,0.57,4.23,3.37,4.23c0.57,0,1.14-0.12,1.34-0.16v-1.39h-0.39
				c-1.63,0-2.26-0.52-2.26-1.85V9.35H155.06z"/>
		</g>
		<g>
			<path class="st2" d="M164.47,23.17c0,3.6,1.85,5.18,4.62,5.18c1.88,0,3.54-0.86,4.53-1.46l0.56,1.61
				c-1.22,0.75-3.13,1.61-5.33,1.61c-3.99,0-6.64-2.65-6.64-7.68c0-4.62,2.26-7.51,6.26-7.51c4.11,0,5.84,3.31,5.84,6.97v1.28
				L164.47,23.17z M168.37,16.65c-2.77,0-3.9,2.44-3.9,4.94h7.63C172.1,19.06,171.23,16.65,168.37,16.65z"/>
			<path class="st2" d="M168.85,30.2c-4.22,0-6.73-2.91-6.73-7.77c0-4.76,2.37-7.59,6.35-7.59c4.37,0,5.93,3.65,5.93,7.06v1.37
				h-9.83c0.03,3.27,1.59,5,4.53,5c1.39,0,2.9-0.49,4.48-1.45l0.09-0.06l0.62,1.78l-0.06,0.04C173.01,29.32,171.1,30.2,168.85,30.2z
				 M168.46,15.01c-3.86,0-6.17,2.77-6.17,7.42c0,4.75,2.45,7.6,6.55,7.6c2.17,0,4.03-0.84,5.22-1.56l-0.51-1.44
				c-1.58,0.94-3.08,1.42-4.48,1.42c-3.03,0-4.71-1.87-4.71-5.27v-0.09h9.83v-1.19C174.21,18.57,172.7,15.01,168.46,15.01z
				 M172.18,21.68h-7.8v-0.09c0-2.32,1.04-5.03,3.99-5.03c3.32,0,3.81,3.15,3.81,5.03V21.68z M164.56,21.5h7.45
				c-0.02-1.82-0.52-4.77-3.64-4.77C165.6,16.74,164.58,19.18,164.56,21.5z"/>
		</g>
		<g>
			<path class="st2" d="M185.56,30.11c-5.48,0-8.22-4.17-8.22-10.46c0-6.49,3.16-10.25,8.28-10.25c2.44,0,4.74,0.6,6.2,1.64
				l-0.89,1.85c-1.16-0.89-3.22-1.46-5.18-1.46c-4.11,0-6.02,3.28-6.02,8.13c0,5.18,2,8.52,5.96,8.52c2.2,0,4.11-0.83,5.54-1.91
				l0.71,1.85C190.24,29.22,188.15,30.11,185.56,30.11z"/>
			<path class="st2" d="M185.56,30.2c-5.28,0-8.31-3.84-8.31-10.54c0-6.47,3.13-10.34,8.37-10.34c2.5,0,4.78,0.6,6.25,1.65
				l0.06,0.04l-0.97,2.01l-0.09-0.07c-1.14-0.88-3.15-1.44-5.13-1.44c-3.82,0-5.93,2.86-5.93,8.04c0,5.36,2.14,8.43,5.87,8.43
				c2.45,0,4.34-1.03,5.49-1.89l0.09-0.07l0.78,2.02l-0.06,0.04C189.97,29.51,187.87,30.2,185.56,30.2z M185.62,9.5
				c-5.13,0-8.19,3.8-8.19,10.16c0,6.59,2.96,10.37,8.13,10.37c2.25,0,4.3-0.66,6.27-2.03l-0.65-1.67c-1.18,0.86-3.06,1.86-5.5,1.86
				c-3.84,0-6.05-3.14-6.05-8.61c0-5.23,2.22-8.22,6.1-8.22c1.96,0,3.97,0.55,5.15,1.41l0.81-1.68
				C190.26,10.07,188.05,9.5,185.62,9.5z"/>
		</g>
		<g>
			<path class="st2" d="M205.7,22.49c0,4.91-2.38,7.63-6.28,7.63c-3.96,0-6.23-2.65-6.23-7.63c0-4.29,2.03-7.56,6.23-7.56
				C203.46,14.92,205.7,18.14,205.7,22.49z M203.37,22.49c0-3.81-1.28-5.87-3.96-5.87c-2.74,0-3.93,2.14-3.93,5.87
				c0,3.58,1.04,5.93,3.93,5.93C202.24,28.41,203.37,26.39,203.37,22.49z"/>
			<path class="st2" d="M199.41,30.2c-4.07,0-6.31-2.74-6.31-7.71c0-4.72,2.42-7.65,6.31-7.65c3.87,0,6.37,3,6.37,7.65
				C205.79,27.39,203.46,30.2,199.41,30.2z M199.41,15.01c-3.84,0-6.14,2.79-6.14,7.48c0,4.86,2.18,7.54,6.14,7.54
				c3.94,0,6.2-2.75,6.2-7.54C205.61,17.95,203.18,15.01,199.41,15.01z M199.41,28.5c-2.71,0-4.02-1.97-4.02-6.02
				c0-3.95,1.35-5.96,4.02-5.96c2.69,0,4.05,2,4.05,5.96C203.46,26.59,202.18,28.5,199.41,28.5z M199.41,16.71
				c-2.55,0-3.85,1.94-3.85,5.78c0,3.93,1.26,5.84,3.85,5.84c2.68,0,3.87-1.8,3.87-5.84C203.29,18.65,201.98,16.71,199.41,16.71z"/>
		</g>
		<g>
			<path class="st2" d="M220.47,20.61v9.2h-2.29V21c0-2.77-0.81-4.29-3.28-4.29c-1.55,0-2.62,0.86-3.51,1.67v11.44h-2.26v-14.6h1.49
				l0.48,1.76c0.84-0.86,2.29-2.05,4.44-2.05c2.18,0,3.57,0.77,4.29,2.23c0.83-0.92,2.44-2.23,4.56-2.23c3.57,0,5.15,2,5.15,5.69
				v9.2h-2.29v-8.82c0-2.77-1.04-4.29-3.51-4.29c-1.37,0-2.59,0.8-3.49,1.67C220.41,19.03,220.47,19.78,220.47,20.61z"/>
			<path class="st2" d="M229.62,29.9h-2.47V21c0-2.87-1.09-4.2-3.43-4.2c-1.4,0-2.61,0.86-3.38,1.61c0.16,0.6,0.23,1.3,0.23,2.21
				v9.29h-2.47V21c0-2.95-0.95-4.2-3.19-4.2c-1.49,0-2.51,0.8-3.42,1.62V29.9h-2.44V15.13h1.65l0.45,1.67
				c1.31-1.31,2.78-1.97,4.39-1.97c2.1,0,3.55,0.73,4.31,2.17c0.68-0.72,2.31-2.17,4.54-2.17c3.53,0,5.24,1.89,5.24,5.78V29.9z
				 M227.32,29.73h2.12v-9.11c0-3.77-1.65-5.6-5.06-5.6c-2.26,0-3.89,1.54-4.49,2.2l-0.09,0.1l-0.06-0.12
				c-0.71-1.45-2.13-2.18-4.21-2.18c-1.6,0-3.07,0.68-4.37,2.03l-0.11,0.11l-0.5-1.84h-1.33v14.42h2.09V18.34l0.03-0.03
				c0.91-0.82,2.01-1.69,3.57-1.69c2.36,0,3.37,1.31,3.37,4.38v8.73h2.12v-9.11c0-0.92-0.08-1.62-0.23-2.21l-0.02-0.05l0.04-0.04
				c0.8-0.77,2.06-1.69,3.55-1.69c2.42,0,3.6,1.43,3.6,4.38L227.32,29.73L227.32,29.73z"/>
		</g>
		<g>
			<path class="st2" d="M235.37,30.8v4.67h-2.29V15.22h1.76l0.36,1.73c1.01-1.13,2.56-2.02,4.26-2.02c3.72,0,5.57,2.65,5.57,7.56
				c0,5.15-2.56,7.63-6.05,7.63c-1.76,0-2.89-0.62-3.93-1.67C235.04,28.45,235.37,29.88,235.37,30.8z M235.37,26.84
				c0.89,0.92,2.11,1.58,3.46,1.58c2.65,0,3.9-1.73,3.9-5.93c0-3.84-1.1-5.81-3.75-5.81c-1.43,0-2.74,0.8-3.6,1.7L235.37,26.84
				L235.37,26.84z"/>
			<path class="st2" d="M235.46,35.56h-2.47V15.13h1.92l0.34,1.63c1.14-1.21,2.7-1.92,4.21-1.92c3.7,0,5.66,2.65,5.66,7.65
				c0,4.83-2.29,7.71-6.14,7.71c-1.52,0-2.66-0.45-3.78-1.49c0.09,0.47,0.27,1.4,0.27,2.09L235.46,35.56L235.46,35.56z
				 M233.16,35.39h2.12V30.8c0-0.9-0.32-2.32-0.32-2.33l-0.07-0.3l0.22,0.22c1.15,1.15,2.31,1.64,3.87,1.64
				c3.73,0,5.96-2.82,5.96-7.54c0-4.96-1.85-7.48-5.48-7.48c-1.51,0-3.08,0.75-4.2,2l-0.12,0.13l-0.38-1.83h-1.6L233.16,35.39
				L233.16,35.39z M238.83,28.5c-1.27,0-2.52-0.57-3.52-1.61l-0.03-0.03v-8.53l0.03-0.03c0.5-0.52,1.86-1.73,3.66-1.73
				c2.62,0,3.85,1.87,3.85,5.9C242.82,26.65,241.59,28.5,238.83,28.5z M235.46,26.8c0.97,0.98,2.16,1.53,3.37,1.53
				c2.64,0,3.81-1.8,3.81-5.84c0-3.9-1.17-5.72-3.67-5.72c-1.71,0-3.01,1.13-3.51,1.65L235.46,26.8L235.46,26.8z"/>
		</g>
		<g>
			<path class="st2" d="M255.9,17.18c-0.42-0.15-1.07-0.27-1.88-0.27c-1.4,0-2.53,0.8-3.27,1.58v11.32h-2.27v-14.6H250l0.41,1.85
				c0.62-0.83,1.91-2.05,3.78-2.05c1.07,0,1.73,0.21,1.85,0.24L255.9,17.18z"/>
			<path class="st2" d="M250.83,29.9h-2.44V15.13h1.68l0.4,1.73c0.55-0.68,1.82-1.94,3.74-1.94c0.98,0,1.61,0.17,1.82,0.23
				l0.12,0.03l-0.16,2.13l-0.11-0.04c-0.47-0.17-1.14-0.26-1.84-0.26c-1.41,0-2.51,0.83-3.19,1.53L250.83,29.9L250.83,29.9z
				 M248.56,29.73h2.09V18.46l0.02-0.03c0.7-0.73,1.86-1.61,3.34-1.61c0.67,0,1.32,0.08,1.8,0.24l0.13-1.75
				c-0.22-0.06-0.83-0.22-1.75-0.22c-1.98,0-3.26,1.41-3.71,2.02l-0.11,0.15l-0.44-1.97h-1.36L248.56,29.73L248.56,29.73z"/>
		</g>
		<g>
			<path class="st2" d="M267.3,29.82l-0.39-1.88c-0.86,1.1-2.44,2.17-4.5,2.17c-2.98,0-4.71-2-4.71-4.47c0-2.53,1.84-4.17,5.15-4.17
				h3.78v-1.16c0-2.53-1.1-3.6-3.31-3.6c-1.84,0-3.34,0.48-4.41,0.95l-0.59-1.64c1.16-0.51,2.89-1.1,5.3-1.1
				c3.46,0,5.22,1.79,5.22,5.27v9.62H267.3z M266.65,23.02h-3.42c-2.48,0-3.31,1.07-3.31,2.53c0,1.76,0.95,2.92,3.07,2.92
				c1.43,0,2.8-0.83,3.66-1.82V23.02z"/>
			<path class="st2" d="M262.42,30.2c-2.83,0-4.79-1.87-4.79-4.56c0-2.67,1.96-4.26,5.24-4.26h3.69v-1.07
				c0-2.43-0.99-3.52-3.22-3.52c-1.49,0-2.96,0.32-4.37,0.95l-0.09,0.04l-0.66-1.81l0.08-0.03c1.09-0.48,2.83-1.11,5.33-1.11
				c3.52,0,5.3,1.8,5.3,5.36v9.71h-1.71l-0.37-1.76C265.78,29.43,264.13,30.2,262.42,30.2z M262.87,21.56
				c-3.17,0-5.07,1.53-5.07,4.08c0,2.62,1.86,4.38,4.62,4.38c2.55,0,4.03-1.64,4.43-2.14l0.12-0.15l0.41,1.99h1.39v-9.53
				c0-3.44-1.72-5.18-5.13-5.18c-2.41,0-4.11,0.6-5.19,1.06l0.54,1.47c1.41-0.61,2.87-0.92,4.35-0.92c2.32,0,3.4,1.17,3.4,3.69v1.25
				L262.87,21.56L262.87,21.56z M262.98,28.56c-2.04,0-3.16-1.07-3.16-3.01c0-1.74,1.14-2.62,3.4-2.62h3.51v3.76l-0.02,0.03
				C265.93,27.61,264.54,28.56,262.98,28.56z M263.22,23.11c-2.14,0-3.22,0.82-3.22,2.44c0,1.83,1.06,2.83,2.98,2.83
				c1.48,0,2.81-0.9,3.57-1.76v-3.51L263.22,23.11z"/>
		</g>
	</g>
</g>
<path class="st2" d="M47.39,35.44l18.43-4.67c4.63-0.41,8.7,3.01,9.11,7.64l5,57.2c0.41,4.63-3.02,8.7-7.65,9.11l-52.03,0.33
	c-4.63,0.4-8.7-3.02-9.11-7.64l-3.9-44.64c-0.41-4.62,3.02-8.7,7.65-9.1l26.43-6.69l1.28,6.44l-22.05,4.33
	c-4.06,0.36-7.06,3.93-6.71,7.99l3.06,34.99c0.36,4.06,3.94,7.06,8,6.7l41.35-1.32c4.06-0.35,7.06-3.93,6.71-7.99L69.17,44.9
	c-0.35-4.06-2.42-5.79-6.47-5.43L48.8,42.2L47.39,35.44z"/>
<path class="st2" d="M70.83,63.83l-15.36,4.54c-4.61,0.57-8.81-2.71-9.37-7.32l-7.87-39.7c-0.57-4.61,2.72-8.8,7.33-9.37l38.81-2.8
	c4.61-0.57,8.8,2.71,9.37,7.31l4.85,31.93c0.57,4.61-2.72,8.8-7.32,9.37L77,62.01l-0.53-6.04l9.57-2.57
	c3.93-0.49,6.73-4.06,6.25-7.99l-2.91-24.7c-0.48-3.93-3.44-5.46-7.37-4.98L51.44,16.9c-3.93,0.48-6.72,4.06-6.24,7.98l6.12,29.45
	c0.48,3.93,4.06,6.72,7.99,6.24l10.97-2.94L70.83,63.83z"/>
</svg>
