<svg xmlns="http://www.w3.org/2000/svg" viewBox="0 0 149.12 36.88"><defs><style>.cls-1,.cls-3{fill:#0063af;}.cls-2{fill:#e73439;}.cls-3,.cls-4{fill-rule:evenodd;}.cls-4,.cls-5{fill:#a4bae1;}</style></defs><g id="Capa_2" data-name="Capa 2"><rect class="cls-1" x="39.18" y="31.56" width="23.26" height="4.7"/><rect class="cls-2" x="62.44" y="31.56" width="33.52" height="4.7"/><path class="cls-3" d="M15.68,11l6.72-1.7A3.07,3.07,0,0,1,25.72,12l1.82,20.85a3.06,3.06,0,0,1-2.79,3.32l-19,.12a3.07,3.07,0,0,1-3.32-2.78L1,17.27A3.06,3.06,0,0,1,3.83,14l9.63-2.44.47,2.35-8,1.58a2.69,2.69,0,0,0-2.45,2.91L4.56,31.11a2.68,2.68,0,0,0,2.91,2.44l15.08-.48A2.68,2.68,0,0,0,25,30.16L23.61,14.4a1.9,1.9,0,0,0-2.36-2l-5.06,1Z"/><path class="cls-4" d="M24.22,21.3,18.62,23a3.08,3.08,0,0,1-3.42-2.67L12.33,5.82A3.08,3.08,0,0,1,15,2.4l14.16-1A3,3,0,0,1,32.57,4l1.77,11.65a3.06,3.06,0,0,1-2.67,3.41l-5.2,1.54-.19-2.2,3.49-.94A2.61,2.61,0,0,0,32,14.59L31,5.58c-.18-1.43-1.26-2-2.69-1.81l-11.15.42A2.61,2.61,0,0,0,14.88,7.1l2.23,10.74A2.62,2.62,0,0,0,20,20.12L24,19Z"/><path class="cls-5" d="M42,8.68c-2,0-3-1.52-3-3.81s1.15-3.73,3-3.73a4,4,0,0,1,2.25.59L44,2.41a3.3,3.3,0,0,0-1.89-.53c-1.5,0-2.19,1.19-2.19,3s.73,3.1,2.17,3.1a3.38,3.38,0,0,0,2-.69l.26.67A4,4,0,0,1,42,8.68Z"/><path class="cls-5" d="M45.38,8.57V1.08h.82V3.22a2.92,2.92,0,0,1-.07.67,2.18,2.18,0,0,1,1.6-.74c1.3,0,1.84.72,1.84,2.07V8.57h-.85V5.36c0-1-.39-1.56-1.22-1.56a2,2,0,0,0-1.3.6V8.57Z"/><path class="cls-5" d="M51.27,8.57V3.92l-.59-.12V3.25h1.39V8.57Zm-.08-7.41h.88V2h-.88Z"/><path class="cls-5" d="M53.56,7.1v-6h.81V7.41c0,.45.21.64.79.64h.18v.56a2.3,2.3,0,0,1-.52.07C53.81,8.68,53.56,8.1,53.56,7.1Z"/><path class="cls-5" d="M57,6.15C57,7.46,57.69,8,58.7,8a3.35,3.35,0,0,0,1.65-.53l.21.58a3.85,3.85,0,0,1-2,.59c-1.45,0-2.41-1-2.41-2.8,0-1.68.82-2.73,2.27-2.73s2.13,1.2,2.13,2.53v.47Zm1.42-2.37c-1,0-1.42.88-1.42,1.8H59.8C59.8,4.65,59.48,3.78,58.44,3.78Z"/><path class="cls-5" d="M64.7,8.68c-2,0-3-1.52-3-3.81s1.15-3.73,3-3.73A4,4,0,0,1,67,1.73l-.33.68a3.27,3.27,0,0,0-1.88-.53c-1.5,0-2.2,1.19-2.2,3s.73,3.1,2.18,3.1a3.35,3.35,0,0,0,2-.69l.26.67A4,4,0,0,1,64.7,8.68Z"/><path class="cls-5" d="M72,5.9c0,1.79-.87,2.78-2.29,2.78s-2.27-1-2.27-2.78c0-1.56.74-2.75,2.27-2.75S72,4.32,72,5.9Zm-.85,0c0-1.39-.47-2.14-1.44-2.14s-1.43.79-1.43,2.14.38,2.16,1.43,2.16S71.19,7.32,71.19,5.9Z"/><path class="cls-5" d="M77.42,5.22V8.57h-.84V5.36c0-1-.29-1.56-1.19-1.56a1.89,1.89,0,0,0-1.28.6V8.57h-.83V3.25h.55l.17.64a2.25,2.25,0,0,1,1.62-.74A1.56,1.56,0,0,1,77.18,4a2.29,2.29,0,0,1,1.66-.81c1.3,0,1.88.72,1.88,2.07V8.57h-.84V5.36c0-1-.38-1.56-1.28-1.56a1.93,1.93,0,0,0-1.27.6A2.94,2.94,0,0,1,77.42,5.22Z"/><path class="cls-5" d="M82.84,8.93v1.7H82V3.25h.64l.13.63a2.14,2.14,0,0,1,1.55-.73c1.36,0,2,1,2,2.75s-.93,2.78-2.2,2.78a1.89,1.89,0,0,1-1.44-.61A4.91,4.91,0,0,1,82.84,8.93Zm0-1.45a1.78,1.78,0,0,0,1.26.58c1,0,1.42-.63,1.42-2.16s-.4-2.11-1.36-2.11a2,2,0,0,0-1.32.61Z"/><path class="cls-5" d="M90.32,4a2.22,2.22,0,0,0-.68-.1,1.72,1.72,0,0,0-1.2.58V8.57h-.82V3.25h.55l.15.68a1.76,1.76,0,0,1,1.38-.75,2.53,2.53,0,0,1,.67.08Z"/><path class="cls-5" d="M94.48,8.57l-.15-.68a2.09,2.09,0,0,1-1.63.79A1.59,1.59,0,0,1,91,7.05c0-.92.67-1.52,1.88-1.52h1.38V5.11c0-.92-.41-1.31-1.21-1.31a4,4,0,0,0-1.6.34l-.22-.59a4.58,4.58,0,0,1,1.93-.4A1.69,1.69,0,0,1,95,5.07v3.5ZM94.24,6.1H93c-.9,0-1.21.39-1.21.92A1,1,0,0,0,92.9,8.08a1.89,1.89,0,0,0,1.34-.66Z"/><path class="cls-1" d="M49,24.75l-.34-10.06h0c-.18.75-.58,2-.75,2.51l-2.41,7.55H43.84l-2.28-7.57c-.11-.36-.6-1.94-.75-2.49h-.05l-.32,10.06H39.22l.43-11.3h2.23s2.5,8.21,2.88,10h0c.43-1.8,3.05-10,3.05-10H50l.44,11.3Z"/><path class="cls-1" d="M53.7,21c0,2,1,2.91,2.6,2.91a5,5,0,0,0,2.54-.82l.32.91a5.86,5.86,0,0,1-3,.9c-2.24,0-3.73-1.49-3.73-4.32,0-2.6,1.27-4.22,3.52-4.22s3.28,1.86,3.28,3.92V21Zm2.2-3.67c-1.56,0-2.2,1.38-2.2,2.78H58C58,18.71,57.5,17.35,55.9,17.35Z"/><path class="cls-1" d="M65.34,17.65a3.35,3.35,0,0,0-1-.15,2.62,2.62,0,0,0-1.85.89v6.36H61.17v-8.2H62l.24,1a2.71,2.71,0,0,1,2.13-1.16,4,4,0,0,1,1,.13Z"/><path class="cls-1" d="M72.49,24.2a5.77,5.77,0,0,1-2.73.72c-2.08,0-3.58-1.22-3.58-4.27,0-2.78,1.52-4.27,3.58-4.27a5.32,5.32,0,0,1,2.68.65l-.37.91a4.42,4.42,0,0,0-2.24-.54c-1.48,0-2.38,1.17-2.38,3.25,0,2.31.9,3.28,2.38,3.28a4.67,4.67,0,0,0,2.36-.68Z"/><path class="cls-1" d="M79.24,24.75,79,23.7a3.23,3.23,0,0,1-2.53,1.22,2.46,2.46,0,0,1-2.65-2.51c0-1.42,1-2.35,2.9-2.35h2.13v-.65c0-1.42-.62-2-1.86-2a6,6,0,0,0-2.48.53L74.2,17a7.11,7.11,0,0,1,3-.62c1.94,0,2.93,1,2.93,3v5.4Zm-.37-3.81H76.94c-1.39,0-1.86.6-1.86,1.42A1.52,1.52,0,0,0,76.81,24a2.91,2.91,0,0,0,2.06-1Z"/><path class="cls-1" d="M87.69,23.77a3.1,3.1,0,0,1-2.36,1.15c-1.94,0-3.3-1.44-3.3-4.29,0-2.49,1.24-4.25,3.44-4.25a3.43,3.43,0,0,1,2.19.7,11.31,11.31,0,0,1-.07-1.34V13.2h1.28V24.75h-1Zm-.1-5.83a3.48,3.48,0,0,0-2-.59c-1.54,0-2.28,1.21-2.28,3.28S84,24,85.52,24a2.78,2.78,0,0,0,2.07-1Z"/><path class="cls-1" d="M97.82,20.63c0,2.77-1.34,4.29-3.53,4.29s-3.5-1.49-3.5-4.29c0-2.41,1.14-4.25,3.5-4.25S97.82,18.19,97.82,20.63Zm-1.3,0c0-2.14-.72-3.3-2.23-3.3s-2.21,1.21-2.21,3.3S92.66,24,94.29,24,96.52,22.83,96.52,20.63Z"/><path class="cls-1" d="M102.73,20.43H101v4.32H99.76V13.45h3c2.21,0,4,1.05,4,3.37S105.06,20.43,102.73,20.43Zm-.09-5.89H101v4.84h1.6c1.73,0,2.77-.82,2.77-2.53S104.27,14.54,102.64,14.54Z"/><path class="cls-1" d="M113.6,24.75l-.19-.93a3.48,3.48,0,0,1-2.54,1.1c-1.83,0-2.84-1.09-2.84-3.33v-5h1.28V21.5c0,1.7.53,2.4,1.86,2.4a3.27,3.27,0,0,0,2-.8V16.55h1.29v8.2Zm-4.14-9.48-.19-.75L113,13.15l.25.95Z"/><path class="cls-1" d="M117.73,17.49a3.5,3.5,0,0,1,2.45-1.11c2.09,0,3.18,1.49,3.18,4.25s-1.44,4.29-3.42,4.29a3.2,3.2,0,0,1-2.38-1.05l-.27.88h-.7V13.2h1.27v3.18Zm.13,5.54a3,3,0,0,0,2,.94c1.44,0,2.21-1,2.21-3.34,0-2.16-.64-3.28-2.13-3.28a3.09,3.09,0,0,0-2.08.92Z"/><path class="cls-1" d="M125.36,22.49V13.2h1.26V23c0,.71.32,1,1.22,1h.27v.87a3.78,3.78,0,0,1-.8.1C125.75,24.92,125.36,24,125.36,22.49Z"/><path class="cls-1" d="M130.35,24.75V17.57l-.9-.18v-.84h2.14v8.2Zm-.11-11.44h1.35v1.35h-1.35Z"/><path class="cls-1" d="M139.88,24.2a5.77,5.77,0,0,1-2.73.72c-2.07,0-3.58-1.22-3.58-4.27,0-2.78,1.52-4.27,3.58-4.27a5.29,5.29,0,0,1,2.68.65l-.36.91a4.46,4.46,0,0,0-2.25-.54c-1.47,0-2.38,1.17-2.38,3.25,0,2.31.91,3.28,2.38,3.28a4.64,4.64,0,0,0,2.36-.68Z"/><path class="cls-1" d="M148.31,20.63c0,2.77-1.34,4.29-3.54,4.29s-3.5-1.49-3.5-4.29c0-2.41,1.14-4.25,3.5-4.25S148.31,18.19,148.31,20.63Zm-1.31,0c0-2.14-.72-3.3-2.23-3.3s-2.21,1.21-2.21,3.3.59,3.34,2.21,3.34S147,22.83,147,20.63Z"/></g></svg>